<svg width="118" height="62" viewBox="0 0 118 62" fill="none" xmlns="http://www.w3.org/2000/svg">
<path d="M29.3203 0.341362L19.9627 18.2247L15.3879 23.6314L28.4885 34.2311L39.9256 13.6499C40.9237 2.67036 33.2713 0.202731 29.3203 0.341362Z" fill="#15514D"/>
<path d="M28.5272 34.2418H11.2677L0.454478 15.5267C-2.04087 2.88358 6.34628 0.138689 10.8518 0.346635L28.5272 34.2418Z" fill="#15514D"/>
<path d="M11.2673 52.9571V36.7373H28.5268C27.6951 50.3786 16.6739 53.2343 11.2673 52.9571Z" fill="#15514D"/>
<path d="M28.4885 34.231L20.1707 18.0112L31.3997 29.0324L28.4885 34.231Z" fill="#15514D"/>
<path d="M43.4835 33.3956C45.407 33.3956 46.9379 34.0236 48.0762 35.2798C49.2342 36.5163 49.8132 38.2238 49.8132 40.4024V50H44.8083V41.0795C44.8083 39.9804 44.5237 39.1267 43.9546 38.5182C43.3854 37.9098 42.6199 37.6056 41.6582 37.6056C40.6965 37.6056 39.931 37.9098 39.3618 38.5182C38.7927 39.1267 38.5081 39.9804 38.5081 41.0795V50H33.4737V33.5722H38.5081V35.7508C39.0184 35.0246 39.7053 34.4554 40.5689 34.0433C41.4325 33.6115 42.404 33.3956 43.4835 33.3956ZM60.3626 50.2355C58.9298 50.2355 57.654 49.9902 56.5353 49.4995C55.4166 49.0088 54.5333 48.3415 53.8857 47.4976C53.238 46.634 52.8749 45.6723 52.7964 44.6124H57.7718C57.8307 45.1816 58.0956 45.6428 58.5667 45.9961C59.0377 46.3494 59.6167 46.526 60.3037 46.526C60.9317 46.526 61.4126 46.4083 61.7463 46.1727C62.0995 45.9176 62.2762 45.5937 62.2762 45.2012C62.2762 44.7302 62.0309 44.3867 61.5402 44.1708C61.0495 43.9353 60.2546 43.6801 59.1555 43.4053C57.9779 43.1306 56.9965 42.846 56.2115 42.5516C55.4264 42.2375 54.7492 41.7567 54.1801 41.109C53.6109 40.4417 53.3263 39.5486 53.3263 38.4299C53.3263 37.4878 53.5814 36.634 54.0917 35.8686C54.6217 35.0835 55.3871 34.4652 56.3881 34.0138C57.4087 33.5624 58.6158 33.3367 60.0093 33.3367C62.0701 33.3367 63.6893 33.847 64.867 34.8676C66.0642 35.8882 66.7511 37.2425 66.9278 38.9304H62.2762C62.1977 38.3612 61.9425 37.9098 61.5107 37.5761C61.0986 37.2425 60.549 37.0756 59.8621 37.0756C59.2733 37.0756 58.8218 37.1934 58.5078 37.4289C58.1938 37.6448 58.0368 37.949 58.0368 38.3416C58.0368 38.8126 58.2821 39.1659 58.7728 39.4014C59.2831 39.637 60.0682 39.8725 61.128 40.108C62.3449 40.422 63.336 40.7361 64.1015 41.0501C64.867 41.3445 65.5343 41.8352 66.1035 42.5221C66.6923 43.1894 66.9965 44.0923 67.0161 45.2306C67.0161 46.1924 66.7413 47.056 66.1918 47.8214C65.6618 48.5672 64.8866 49.156 63.866 49.5878C62.865 50.0196 61.6972 50.2355 60.3626 50.2355ZM85.9498 41.5211C85.9498 41.9922 85.9203 42.4829 85.8615 42.9932H74.468C74.5465 44.0138 74.8703 44.7988 75.4395 45.3484C76.0283 45.8783 76.7447 46.1433 77.5887 46.1433C78.8448 46.1433 79.7182 45.6134 80.2089 44.5535H85.5671C85.2923 45.633 84.7918 46.6045 84.0656 47.4681C83.359 48.3317 82.466 49.0088 81.3865 49.4995C80.307 49.9902 79.1 50.2355 77.7653 50.2355C76.1559 50.2355 74.7231 49.8921 73.467 49.2051C72.2109 48.5182 71.2295 47.5368 70.523 46.2611C69.8164 44.9853 69.4631 43.4937 69.4631 41.7861C69.4631 40.0786 69.8066 38.5869 70.4935 37.3112C71.2001 36.0354 72.1815 35.0541 73.4376 34.3671C74.6937 33.6802 76.1363 33.3367 77.7653 33.3367C79.3551 33.3367 80.7683 33.6704 82.0048 34.3377C83.2413 35.005 84.203 35.9569 84.8899 37.1934C85.5965 38.4299 85.9498 39.8725 85.9498 41.5211ZM80.7977 40.1963C80.7977 39.3327 80.5033 38.6458 79.9145 38.1355C79.3257 37.6252 78.5897 37.37 77.7064 37.37C76.8625 37.37 76.1461 37.6154 75.5573 38.106C74.9881 38.5967 74.6348 39.2935 74.4974 40.1963H80.7977ZM87.9727 41.7861C87.9727 40.0786 88.3161 38.5869 89.0031 37.3112C89.7096 36.0354 90.6812 35.0541 91.9177 34.3671C93.1738 33.6802 94.6066 33.3367 96.216 33.3367C98.2768 33.3367 99.9942 33.8764 101.368 34.9559C102.762 36.0354 103.674 37.5565 104.106 39.5192H98.7479C98.2965 38.2631 97.4231 37.635 96.1277 37.635C95.2052 37.635 94.4692 37.9981 93.9196 38.7243C93.3701 39.4309 93.0953 40.4515 93.0953 41.7861C93.0953 43.1207 93.3701 44.1512 93.9196 44.8774C94.4692 45.5839 95.2052 45.9372 96.1277 45.9372C97.4231 45.9372 98.2965 45.3092 98.7479 44.053H104.106C103.674 45.9765 102.762 47.4877 101.368 48.5869C99.9746 49.686 98.2572 50.2355 96.216 50.2355C94.6066 50.2355 93.1738 49.8921 91.9177 49.2051C90.6812 48.5182 89.7096 47.5368 89.0031 46.2611C88.3161 44.9853 87.9727 43.4937 87.9727 41.7861ZM116.323 45.7311V50H113.762C111.936 50 110.513 49.5584 109.493 48.6752C108.472 47.7723 107.962 46.3101 107.962 44.2885V37.7528H105.96V33.5722H107.962V29.5683H112.996V33.5722H116.293V37.7528H112.996V44.3474C112.996 44.8381 113.114 45.1914 113.349 45.4073C113.585 45.6232 113.977 45.7311 114.527 45.7311H116.323Z" fill="#15514D"/>
</svg>
